<?xml version="1.0" standalone="no"?>
<!DOCTYPE svg PUBLIC "-//W3C//DTD SVG 20010904//EN"
 "http://www.w3.org/TR/2001/REC-SVG-20010904/DTD/svg10.dtd">
<svg version="1.0" xmlns="http://www.w3.org/2000/svg"
 width="800.000000pt" height="800.000000pt" viewBox="0 0 800.000000 800.000000"
 preserveAspectRatio="xMidYMid meet">

<g transform="translate(0.000000,800.000000) scale(0.100000,-0.100000)"
fill="#202266" stroke="none">
<path d="M4675 6446 c-56 -26 -98 -70 -126 -131 -18 -38 -19 -92 -19 -983 l0
-944 -45 -44 -45 -43 0 -135 c0 -153 -5 -166 -70 -166 -54 0 -87 -18 -100 -53
-6 -17 -10 -120 -10 -243 0 -201 -1 -214 -19 -224 -13 -6 -161 -10 -414 -10
-374 0 -396 -1 -418 -19 -24 -19 -24 -22 -29 -255 -4 -196 -8 -238 -20 -246
-9 -6 -180 -10 -413 -10 l-398 0 -24 -25 -25 -24 0 -221 c0 -207 -1 -221 -20
-240 -19 -19 -33 -20 -414 -20 l-395 0 -27 -23 -27 -24 -1 -386 c-1 -377 -1
-386 20 -414 l21 -28 1813 0 1813 0 21 28 21 28 3 1107 c2 609 0 1140 -3 1179
-8 93 -23 112 -95 122 -31 4 -61 10 -68 15 -8 5 -12 45 -12 136 0 145 -7 171
-57 200 l-33 19 0 301 c0 344 -5 326 95 356 152 44 240 56 435 61 232 6 354
-11 565 -77 114 -36 134 -40 166 -31 20 6 42 17 48 25 8 9 10 174 9 592 l-3
578 -40 23 c-68 39 -248 91 -410 119 -71 13 -154 18 -285 18 -194 0 -263 -8
-447 -51 -127 -30 -131 -29 -161 41 -24 52 -75 104 -127 127 -60 28 -166 25
-230 -5z m176 -182 l24 -26 0 -931 0 -932 -26 -12 c-16 -8 -45 -10 -78 -6 -42
5 -54 10 -59 27 -4 12 -5 437 -2 944 l5 924 24 19 c34 27 82 25 112 -7z m1116
-142 c132 -29 200 -50 217 -68 14 -13 16 -68 16 -429 0 -263 -4 -416 -10 -420
-5 -3 -56 5 -112 19 -168 42 -243 50 -443 50 -200 0 -275 -8 -443 -50 -57 -14
-110 -23 -118 -20 -12 5 -14 72 -14 420 l0 416 23 14 c32 21 186 64 292 81
132 21 468 14 592 -13z m-1013 -1958 c19 -19 22 -134 4 -152 -8 -8 -59 -12
-163 -12 -104 0 -155 4 -163 12 -16 16 -16 140 0 156 8 8 58 12 159 12 121 0
150 -3 163 -16z m176 -354 c13 -8 15 -135 18 -1029 1 -654 -1 -1028 -8 -1045
l-10 -26 -334 0 c-321 0 -336 1 -346 19 -7 13 -10 355 -10 1036 0 681 3 1023
10 1036 10 18 25 19 338 19 189 0 333 -4 342 -10z m-882 -532 c17 -17 17
-1539 0 -1556 -17 -17 -659 -17 -676 0 -17 17 -17 1539 0 1556 17 17 659 17
676 0z m-880 -530 c19 -19 17 -1011 -2 -1027 -9 -8 -109 -11 -347 -9 l-334 3
-3 510 c-1 281 0 516 3 523 6 17 665 18 683 0z m-881 -534 c18 -25 19 -474 1
-492 -9 -9 -99 -12 -345 -12 -306 0 -333 1 -342 18 -9 18 -14 443 -4 475 2 10
13 21 23 25 10 4 162 6 336 5 292 -1 319 -3 331 -19z"/>
</g>
</svg>
