<?xml version="1.0" standalone="no"?>
<!DOCTYPE svg PUBLIC "-//W3C//DTD SVG 20010904//EN"
 "http://www.w3.org/TR/2001/REC-SVG-20010904/DTD/svg10.dtd">
<svg version="1.0" xmlns="http://www.w3.org/2000/svg"
 width="800.000000pt" height="800.000000pt" viewBox="0 0 800.000000 800.000000"
 preserveAspectRatio="xMidYMid meet">

<g transform="translate(0.000000,800.000000) scale(0.100000,-0.100000)"
fill="#202266" stroke="none">
<path d="M3130 6261 c-104 -34 -160 -106 -160 -206 0 -200 252 -292 378 -139
110 133 27 334 -144 349 -27 2 -60 1 -74 -4z"/>
<path d="M3123 5480 c-72 -43 -68 0 -71 -735 -2 -591 -1 -665 14 -703 30 -80
9 -76 534 -82 407 -4 469 -7 490 -21 14 -9 151 -187 305 -395 154 -208 293
-393 308 -411 92 -105 264 -16 227 117 -10 37 -588 824 -662 900 -27 28 -59
50 -84 58 -30 8 -152 12 -427 12 l-386 0 -28 24 -28 24 0 247 0 247 28 24 28
24 254 0 c278 0 317 6 350 57 22 32 22 100 2 139 -30 59 -57 64 -337 64 -279
0 -299 4 -319 61 -6 18 -11 89 -11 159 0 114 -2 130 -21 154 -44 56 -110 70
-166 36z"/>
<path d="M2763 5156 c-122 -45 -240 -103 -338 -167 -103 -68 -266 -231 -334
-334 -107 -163 -188 -365 -216 -540 -19 -117 -19 -315 0 -435 74 -457 408
-859 845 -1020 173 -64 235 -74 455 -74 178 -1 211 2 295 23 237 59 416 150
582 295 126 109 298 341 298 401 0 26 -147 233 -166 234 -6 1 -21 -25 -34 -56
-142 -346 -498 -602 -878 -631 -396 -31 -757 143 -972 470 -203 308 -231 660
-81 1009 104 241 309 440 561 544 50 21 95 46 101 56 14 26 12 232 -3 247 -15
15 -7 17 -115 -22z"/>
<path d="M5090 3015 c-514 -195 -1016 -386 -1115 -424 -99 -37 -503 -190 -898
-340 -991 -375 -922 -347 -952 -383 -30 -36 -28 -68 7 -105 l21 -23 1899 0
c1853 0 1900 0 1936 19 51 26 101 77 123 127 17 38 20 81 25 460 9 547 -2 967
-25 995 -39 48 -29 51 -1021 -326z"/>
</g>
</svg>
