<?xml version="1.0" standalone="no"?>
<!DOCTYPE svg PUBLIC "-//W3C//DTD SVG 20010904//EN"
 "http://www.w3.org/TR/2001/REC-SVG-20010904/DTD/svg10.dtd">
<svg version="1.0" xmlns="http://www.w3.org/2000/svg"
 width="800.000000pt" height="800.000000pt" viewBox="0 0 800.000000 800.000000"
 preserveAspectRatio="xMidYMid meet">

<g transform="translate(0.000000,800.000000) scale(0.100000,-0.100000)"
fill="#202266" stroke="none">
<path d="M3750 6073 c-252 -32 -535 -128 -750 -255 -778 -459 -1164 -1385
-933 -2238 136 -503 477 -950 929 -1216 785 -462 1767 -333 2415 317 606 609
759 1501 389 2268 -274 566 -782 966 -1394 1097 -109 24 -146 27 -371 29 -137
2 -266 1 -285 -2z m395 -184 c585 -50 1091 -358 1396 -849 277 -447 343 -1022
173 -1529 -246 -740 -930 -1231 -1714 -1231 -698 0 -1328 392 -1625 1013 -475
989 14 2164 1043 2507 247 82 480 111 727 89z"/>
<path d="M3741 5174 c-25 -13 -61 -40 -82 -58 -22 -20 -60 -41 -94 -51 -100
-29 -175 -125 -175 -224 0 -40 -13 -64 -57 -109 -20 -19 -47 -60 -62 -91 -22
-49 -26 -69 -26 -156 0 -87 4 -107 26 -156 14 -30 47 -79 73 -107 37 -43 46
-60 46 -91 0 -104 71 -196 175 -226 38 -12 73 -32 112 -66 39 -34 74 -55 111
-65 50 -15 59 -15 116 1 77 22 116 22 191 0 56 -17 64 -17 116 -2 38 11 73 32
112 66 39 34 74 54 112 65 30 9 71 31 92 49 44 39 83 118 83 170 0 47 7 60 63
118 60 63 82 128 82 244 0 116 -21 179 -80 240 -54 55 -65 75 -65 116 0 99
-75 195 -174 224 -37 11 -74 32 -109 62 -28 25 -66 52 -84 59 -47 20 -143 18
-197 -6 -45 -19 -46 -19 -88 0 -65 29 -161 27 -217 -6z m171 -115 c32 -42 36
-125 31 -623 -5 -521 -7 -539 -58 -552 -56 -14 -135 25 -135 66 0 21 40 40 85
40 39 0 65 22 65 55 0 35 -36 55 -98 55 -58 0 -83 -10 -122 -46 -39 -35 -71
-44 -107 -29 -43 18 -62 60 -66 145 l-3 72 -57 52 c-68 61 -88 106 -88 192 0
83 25 140 84 188 51 42 67 77 67 148 0 87 46 138 124 138 41 0 66 -28 66 -75
0 -17 5 -36 12 -43 17 -17 64 -15 82 4 23 23 21 111 -4 152 -27 43 -25 58 8
77 40 22 91 15 114 -16z m299 8 c44 -29 50 -63 14 -77 -14 -5 -41 -10 -60 -10
-39 0 -65 -22 -65 -54 0 -38 35 -60 93 -60 56 0 93 16 147 63 40 36 40 36 84
17 47 -20 66 -51 66 -111 1 -65 25 -117 87 -185 75 -82 88 -137 57 -240 -12
-41 -28 -66 -70 -105 -61 -59 -74 -86 -74 -156 0 -88 -46 -139 -124 -139 -39
0 -66 28 -66 68 0 57 -51 83 -92 45 -28 -25 -24 -105 7 -159 l25 -43 -27 -21
c-19 -15 -38 -20 -66 -18 -53 4 -79 39 -88 116 -7 65 -1 969 7 1020 11 71 79
93 145 49z"/>
<path d="M3640 4589 c-62 -25 -100 -85 -100 -157 0 -54 32 -114 64 -120 61
-12 90 32 62 92 -21 44 -15 57 37 81 35 17 43 25 45 52 5 51 -47 76 -108 52z"/>
<path d="M4272 4585 c-17 -13 -22 -25 -20 -48 2 -26 11 -36 46 -56 47 -25 45
-17 26 -109 -8 -38 18 -64 59 -60 71 7 104 135 55 208 -47 68 -121 97 -166 65z"/>
<path d="M2710 4872 c-53 -26 -77 -71 -85 -155 -4 -39 -5 -272 -3 -517 5 -484
6 -497 65 -599 41 -71 87 -115 293 -280 107 -87 201 -165 208 -174 10 -12 13
-63 13 -209 -1 -190 6 -254 31 -270 7 -4 106 -8 219 -8 162 0 209 3 225 14 18
14 19 30 19 383 0 406 -2 425 -62 553 -32 68 -56 96 -248 290 -117 118 -218
225 -224 237 -7 14 -11 94 -11 223 0 218 -6 250 -54 288 -15 11 -49 28 -76 37
-38 13 -50 22 -60 48 -28 78 -52 115 -89 135 -47 27 -113 28 -161 4z m120
-122 c7 -14 10 -146 9 -405 -1 -359 0 -387 17 -414 24 -37 390 -421 420 -440
18 -12 28 -12 49 -3 30 14 39 33 31 65 -3 12 -83 103 -178 201 -247 256 -251
261 -204 305 18 17 32 22 48 17 13 -3 124 -106 248 -228 315 -312 310 -298
310 -748 0 -158 -3 -295 -6 -304 -5 -13 -25 -16 -118 -16 -74 0 -116 4 -124
12 -8 8 -12 67 -12 199 0 171 -2 188 -20 212 -11 14 -118 104 -238 201 -212
171 -260 219 -298 301 -17 37 -19 77 -22 526 -2 313 1 495 7 512 13 34 64 38
81 7z m188 -192 c8 -8 12 -64 12 -184 0 -165 -1 -173 -20 -179 -45 -14 -50 6
-50 190 0 94 3 175 7 178 10 11 38 8 51 -5z"/>
<path d="M5134 4872 c-41 -26 -72 -67 -84 -111 -13 -50 -28 -66 -76 -79 -23
-7 -54 -22 -69 -34 -49 -38 -55 -69 -55 -288 0 -129 -4 -209 -11 -223 -6 -12
-107 -119 -223 -237 -317 -322 -310 -303 -311 -838 0 -358 1 -374 19 -388 16
-11 63 -14 225 -14 113 0 212 4 219 8 25 16 32 80 31 270 0 146 3 197 13 209
7 9 101 87 208 174 257 207 296 251 337 384 16 55 18 104 18 565 0 560 2 542
-67 591 -44 32 -132 37 -174 11z m117 -129 c6 -17 9 -200 7 -507 -3 -478 -3
-481 -26 -531 -42 -91 -73 -123 -266 -277 -105 -84 -212 -174 -238 -199 l-48
-45 0 -191 c0 -151 -3 -193 -14 -202 -9 -8 -52 -11 -127 -9 l-114 3 -3 285
c-4 478 -12 459 303 772 124 122 237 227 250 233 35 13 81 -31 71 -68 -3 -13
-53 -74 -111 -135 -109 -115 -123 -143 -89 -176 35 -35 62 -21 168 90 160 168
146 113 146 562 0 245 4 390 10 403 7 12 21 19 41 19 23 0 32 -6 40 -27z
m-213 -354 c3 -189 -2 -209 -48 -194 -19 6 -20 14 -20 179 0 181 4 200 45 194
19 -3 20 -11 23 -179z"/>
</g>
</svg>
