<svg width="24" height="24" viewBox="0 0 24 24" fill="none" xmlns="http://www.w3.org/2000/svg">
<path d="M11.4225 21.526C11.5802 21.6701 11.7862 21.75 12 21.75C12.2138 21.75 12.4198 21.6701 12.5775 21.526C14.3325 19.8425 19.5 14.5601 19.5 10.4822C19.5 8.49783 18.7098 6.59469 17.3033 5.1915C15.8968 3.7883 13.9891 3 12 3C10.0109 3 8.10322 3.7883 6.6967 5.1915C5.29018 6.59469 4.5 8.49783 4.5 10.4822C4.5 14.5601 9.6675 19.8425 11.4225 21.526ZM12 4.54134C13.5835 4.5413 15.1029 5.16577 16.2268 6.27864C17.3507 7.3915 17.9881 8.9025 18 10.4822C18 13.1384 15 17.0442 12 19.9922C9 17.0442 6 13.1384 6 10.4822C6.01188 8.9025 6.64926 7.3915 7.77319 6.27864C8.89712 5.16577 10.4165 4.5413 12 4.54134Z" fill="white"/>
<path d="M15.375 10.153C15.375 9.48709 15.1771 8.83611 14.8062 8.28241C14.4354 7.72871 13.9083 7.29715 13.2916 7.04231C12.6749 6.78747 11.9963 6.72079 11.3416 6.85071C10.6869 6.98062 10.0855 7.3013 9.61351 7.77219C9.14151 8.24307 8.82007 8.84301 8.68985 9.49615C8.55962 10.1493 8.62646 10.8263 8.88191 11.4415C9.13735 12.0568 9.56993 12.5826 10.125 12.9526C10.68 13.3226 11.3325 13.52 12 13.52C12.4435 13.521 12.8828 13.4346 13.2927 13.2657C13.7026 13.0969 14.0751 12.8489 14.3887 12.5361C14.7023 12.2232 14.9508 11.8516 15.1201 11.4427C15.2894 11.0337 15.376 10.5955 15.375 10.153ZM10.125 10.153C10.125 9.78306 10.235 9.4214 10.441 9.11379C10.647 8.80618 10.9399 8.56643 11.2825 8.42485C11.6251 8.28327 12.0021 8.24623 12.3658 8.3184C12.7295 8.39058 13.0636 8.56873 13.3258 8.83033C13.588 9.09194 13.7666 9.42524 13.839 9.78809C13.9113 10.1509 13.8742 10.5271 13.7323 10.8689C13.5904 11.2107 13.35 11.5028 13.0417 11.7083C12.7334 11.9139 12.3708 12.0236 12 12.0236C11.5027 12.0236 11.0258 11.8265 10.6742 11.4757C10.3225 11.1249 10.125 10.6491 10.125 10.153Z" fill="white"/>
</svg>
