<?xml version="1.0" standalone="no"?>
<!DOCTYPE svg PUBLIC "-//W3C//DTD SVG 20010904//EN"
 "http://www.w3.org/TR/2001/REC-SVG-20010904/DTD/svg10.dtd">
<svg version="1.0" xmlns="http://www.w3.org/2000/svg"
 width="800.000000pt" height="800.000000pt" viewBox="0 0 800.000000 800.000000"
 preserveAspectRatio="xMidYMid meet">

<g transform="translate(0.000000,800.000000) scale(0.100000,-0.100000)"
fill="#202266" stroke="none">
<path d="M2404 6719 c-142 -27 -274 -157 -325 -318 -26 -82 -28 -246 -4 -336
44 -168 152 -313 283 -377 60 -30 75 -33 157 -33 102 0 156 19 232 81 88 72
178 215 208 331 33 126 9 336 -49 436 -57 96 -176 181 -291 205 -73 16 -164
21 -211 11z m220 -136 c67 -24 148 -100 183 -171 23 -48 28 -73 31 -162 3 -90
0 -116 -21 -181 -54 -171 -180 -292 -303 -292 -217 0 -397 353 -309 603 32 91
112 171 203 205 53 20 158 18 216 -2z"/>
<path d="M5406 6719 c-169 -25 -298 -141 -352 -315 -24 -76 -26 -95 -22 -202
6 -130 31 -219 94 -323 45 -74 141 -164 211 -197 50 -23 71 -27 148 -27 79 1
98 4 150 30 73 35 179 137 222 215 54 97 75 175 81 294 6 127 -6 193 -51 285
-87 178 -274 271 -481 240z m216 -148 c62 -30 121 -88 152 -149 104 -206 6
-520 -195 -623 -128 -65 -284 21 -374 205 -62 128 -65 281 -9 407 33 74 111
148 180 172 68 24 183 18 246 -12z"/>
<path d="M3904 6240 c-56 -11 -149 -60 -200 -104 -52 -44 -104 -122 -134 -201
-34 -88 -35 -268 -2 -375 50 -159 157 -297 277 -356 54 -26 70 -29 155 -29 84
0 102 3 153 28 111 55 226 199 274 342 23 69 26 97 26 200 0 138 -19 211 -80
302 -99 149 -291 228 -469 193z m231 -151 c66 -31 131 -97 163 -167 23 -50 26
-70 27 -167 0 -89 -5 -123 -23 -176 -27 -79 -67 -144 -121 -198 -156 -156
-343 -97 -463 147 l-43 85 0 121 c0 140 21 210 82 277 95 105 253 137 378 78z"/>
<path d="M1905 5480 c-158 -18 -272 -96 -336 -232 l-34 -73 0 -625 0 -625 28
-57 c15 -31 46 -75 69 -98 42 -42 128 -91 181 -104 15 -3 36 -15 47 -26 19
-19 20 -35 20 -498 0 -537 4 -506 -77 -537 -158 -59 -345 -175 -430 -268 -71
-77 -96 -139 -97 -232 0 -106 30 -173 116 -259 111 -109 260 -193 503 -281
367 -133 828 -219 1435 -270 258 -21 1073 -21 1330 0 588 49 987 119 1337 234
383 126 594 257 690 428 30 52 33 66 33 142 0 75 -3 89 -32 143 -64 120 -216
239 -422 330 -61 27 -119 56 -128 65 -17 15 -18 50 -18 495 0 299 4 486 10
498 5 10 36 28 67 40 137 51 220 129 253 239 20 64 21 88 18 666 l-3 600 -32
67 c-63 133 -181 216 -336 237 -127 18 -1147 14 -1240 -3 -133 -26 -243 -99
-302 -200 -28 -49 -55 -148 -55 -204 0 -76 25 -72 -499 -72 -359 0 -471 3
-483 13 -9 7 -20 45 -28 100 -31 217 -163 344 -380 367 -109 11 -1100 11
-1205 0z m1290 -148 c96 -44 159 -131 171 -236 8 -70 -7 -96 -73 -121 -134
-50 -219 -132 -260 -250 -16 -46 -18 -141 -23 -1160 l-5 -1110 -22 -35 c-74
-120 -306 -117 -379 4 -18 29 -19 64 -24 534 -5 484 -6 504 -24 518 -30 21
-72 17 -90 -8 -14 -20 -16 -83 -16 -493 0 -312 -4 -483 -11 -510 -32 -115
-188 -170 -314 -111 -27 13 -58 33 -68 44 -47 52 -46 34 -47 1163 0 836 -3
1069 -12 1082 -21 27 -61 31 -89 9 l-24 -20 -3 -421 -3 -421 -25 0 c-55 0
-140 64 -175 132 -18 35 -19 66 -19 630 0 552 2 596 19 633 25 57 66 101 119
133 65 37 117 40 782 38 l565 -1 50 -23z m2987 -5 c61 -30 95 -64 131 -131 22
-41 22 -45 25 -621 2 -418 0 -592 -9 -622 -21 -78 -125 -169 -182 -161 l-22 3
-5 410 c-4 302 -8 416 -17 432 -24 41 -82 41 -106 0 -9 -17 -12 -256 -13
-1092 0 -1177 4 -1096 -61 -1157 -83 -79 -246 -77 -320 3 -53 57 -53 62 -53
571 0 522 0 521 -58 526 -64 6 -62 25 -62 -472 0 -329 -4 -468 -13 -513 -24
-114 -96 -172 -212 -173 -75 0 -152 34 -186 81 l-24 34 -11 1120 c-7 721 -14
1131 -21 1150 -44 128 -127 212 -256 260 -65 25 -81 51 -74 121 10 98 76 196
157 232 57 26 155 30 760 28 l575 -1 57 -28z m-1502 -478 c77 -36 123 -79 151
-141 l24 -53 0 -575 c0 -461 -3 -583 -14 -614 -26 -75 -130 -162 -184 -154
l-22 3 -5 418 -5 419 -24 19 c-31 25 -47 24 -76 -6 l-25 -24 0 -1058 c0 -697
-4 -1071 -10 -1095 -24 -87 -102 -138 -210 -138 -108 0 -186 51 -210 138 -6
23 -10 215 -10 507 0 518 0 515 -59 515 -61 0 -60 12 -63 -525 -3 -556 -1
-541 -86 -600 -37 -25 -55 -30 -118 -33 -65 -4 -81 -1 -129 22 -36 18 -62 39
-77 64 l-23 37 -5 1088 -5 1089 -24 19 c-27 22 -57 18 -83 -13 -17 -19 -18
-54 -18 -422 0 -467 2 -453 -75 -416 -27 13 -65 40 -85 60 -70 70 -70 67 -70
690 0 619 0 622 66 698 49 58 110 91 186 102 35 4 326 7 648 6 l585 -1 55 -26z
m-1456 -1634 c37 -19 77 -35 87 -35 11 0 28 -9 39 -20 17 -17 20 -33 20 -124
0 -71 -4 -107 -12 -114 -7 -6 -54 -13 -104 -17 -86 -7 -93 -6 -103 13 -12 23
-16 332 -3 332 4 0 38 -16 76 -35z m1634 -123 c3 -202 7 -197 -116 -189 -60 4
-99 11 -104 19 -13 22 -10 224 5 236 6 6 38 19 70 31 32 11 73 29 90 40 18 12
37 19 42 17 6 -1 11 -65 13 -154z m-1507 -329 c11 -13 15 -97 19 -412 5 -378
6 -398 26 -442 59 -126 228 -211 375 -188 48 8 112 35 192 82 37 22 37 22 70
3 98 -58 138 -76 190 -84 154 -24 317 59 379 193 23 49 23 57 26 445 2 283 6
398 15 408 9 11 28 13 83 9 86 -8 101 -13 116 -41 6 -11 14 -86 18 -166 6
-153 12 -174 67 -247 52 -68 176 -123 278 -123 72 0 143 23 215 71 69 46 59
47 159 -16 183 -116 454 -32 518 160 25 78 40 79 161 21 213 -104 343 -234
342 -342 -1 -65 -88 -173 -198 -247 -272 -181 -820 -329 -1487 -401 -333 -36
-437 -41 -895 -41 -476 0 -637 7 -990 46 -934 102 -1630 379 -1630 649 0 54
19 95 69 152 85 95 372 256 407 228 8 -7 14 -20 14 -29 0 -33 48 -117 88 -153
57 -51 109 -76 191 -90 110 -19 206 6 292 73 45 35 59 36 97 4 17 -14 57 -38
89 -52 49 -23 71 -28 148 -28 80 0 97 3 156 31 74 35 128 85 161 147 19 36 23
62 28 199 3 99 9 161 17 169 30 29 172 39 194 12z"/>
</g>
</svg>
