<svg width="24" height="24" viewBox="0 0 24 24" fill="none" xmlns="http://www.w3.org/2000/svg">
<path d="M12 5.25H11.5781H3.65039L2.88 5.25155C2.53186 5.25225 2.25 5.53467 2.25 5.88281V17.8828C2.25 18.297 2.58579 18.6328 3 18.6328H21C21.4142 18.6328 21.75 18.297 21.75 17.8828V5.88281C21.75 5.53487 21.4679 5.25281 21.12 5.25281H20.3496L12.4219 5.25H12ZM12 6.58594L19.6875 6.63281L12 12.3984L4.3125 6.63281L12 6.58594ZM3.75 8.08594L11.5547 13.9453C11.8195 14.1404 12.1805 14.1404 12.4453 13.9453L20.25 8.08594V17.1328H3.75V8.08594Z" fill="white"/>
</svg>
