<?xml version="1.0" standalone="no"?>
<!DOCTYPE svg PUBLIC "-//W3C//DTD SVG 20010904//EN"
 "http://www.w3.org/TR/2001/REC-SVG-20010904/DTD/svg10.dtd">
<svg version="1.0" xmlns="http://www.w3.org/2000/svg"
 width="501.000000pt" height="500.000000pt" viewBox="0 0 501.000000 500.000000"
 preserveAspectRatio="xMidYMid meet">

<g transform="translate(0.000000,500.000000) scale(0.100000,-0.100000)"
fill="#202266" stroke="none">
<path d="M2335 4144 c-89 -10 -260 -46 -348 -74 -126 -41 -332 -146 -447 -227
-189 -135 -379 -351 -492 -560 -125 -230 -198 -520 -198 -784 0 -333 112 -685
303 -950 96 -133 123 -161 155 -157 49 6 40 38 -42 142 -163 209 -270 452
-318 726 -7 41 -13 149 -13 240 0 289 62 525 201 771 405 720 1308 1001 2049
639 169 -82 277 -160 421 -304 233 -234 365 -477 435 -806 33 -152 33 -448 0
-600 -70 -329 -202 -572 -435 -806 -233 -232 -486 -369 -804 -434 -417 -84
-900 24 -1230 275 -58 45 -97 45 -97 0 0 -26 11 -37 80 -87 100 -72 310 -178
432 -218 179 -57 297 -74 513 -74 162 0 214 3 308 22 991 198 1574 1198 1255
2151 -186 558 -666 976 -1250 1091 -105 21 -378 34 -478 24z"/>
<path d="M2155 3691 c-28 -12 -62 -51 -74 -84 -8 -19 -11 -291 -11 -846 0
-885 -2 -847 52 -839 l23 3 5 833 c5 811 6 834 24 848 25 18 47 18 72 0 19
-14 19 -38 22 -1054 l2 -1039 -21 -26 c-24 -32 -52 -34 -79 -7 -18 18 -20 33
-20 158 0 137 -6 162 -36 162 -7 0 -20 -7 -28 -16 -24 -24 -23 -275 2 -324 21
-43 75 -80 116 -80 41 0 95 28 120 63 21 28 21 42 26 609 l5 580 590 209 c325
114 596 212 604 217 29 17 37 41 20 58 -9 9 -286 111 -615 228 l-599 212 -13
41 c-20 60 -61 95 -119 99 -26 2 -57 0 -68 -5z m720 -406 c275 -97 507 -181
515 -185 13 -8 13 -9 0 -14 -78 -29 -1032 -366 -1036 -366 -2 0 -4 169 -4 376
0 297 3 375 13 371 6 -2 237 -84 512 -182z"/>
</g>
</svg>
