<?xml version="1.0" standalone="no"?>
<!DOCTYPE svg PUBLIC "-//W3C//DTD SVG 20010904//EN"
 "http://www.w3.org/TR/2001/REC-SVG-20010904/DTD/svg10.dtd">
<svg version="1.0" xmlns="http://www.w3.org/2000/svg"
 width="800.000000pt" height="800.000000pt" viewBox="0 0 800.000000 800.000000"
 preserveAspectRatio="xMidYMid meet">

<g transform="translate(0.000000,800.000000) scale(0.100000,-0.100000)"
fill="#202266" stroke="none">
<path d="M3480 6891 c-119 -38 -209 -102 -276 -197 -152 -212 -133 -486 46
-677 163 -174 422 -217 634 -104 309 164 376 574 136 830 -68 73 -151 125
-239 151 -75 22 -229 20 -301 -3z m253 -86 c165 -43 280 -156 323 -320 47
-175 -31 -368 -191 -470 -74 -47 -137 -65 -230 -65 -180 0 -319 90 -397 256
-31 65 -33 75 -33 179 1 102 3 115 32 178 88 187 303 292 496 242z"/>
<path d="M1513 6036 c-174 -42 -319 -175 -379 -345 -31 -88 -33 -239 -4 -332
51 -165 195 -306 363 -354 89 -25 218 -22 308 9 56 19 77 22 85 13 6 -7 131
-155 278 -330 l267 -317 -60 -123 c-33 -67 -67 -148 -77 -181 -10 -32 -23 -60
-29 -62 -5 -2 -170 11 -364 29 l-355 32 -20 51 c-63 152 -176 264 -321 315
-75 27 -210 36 -288 20 -188 -40 -364 -209 -406 -391 -13 -58 -13 -202 0 -260
41 -178 211 -348 389 -389 66 -15 197 -13 263 4 209 54 368 239 393 454 l7 61
46 -5 c41 -5 373 -36 559 -52 l74 -6 -7 -66 c-12 -107 -7 -300 10 -396 30
-171 120 -409 197 -517 l19 -27 -178 -134 c-243 -183 -211 -170 -273 -109
-200 197 -520 204 -730 15 -68 -61 -125 -148 -150 -231 -27 -88 -27 -236 0
-324 51 -167 201 -308 375 -354 68 -18 194 -17 269 2 277 71 451 366 378 643
l-19 73 56 44 c31 23 121 92 201 152 l145 110 95 -92 c152 -149 284 -237 463
-311 l102 -42 5 -169 c5 -178 7 -187 58 -240 48 -50 86 -55 379 -52 l271 3 43
30 c73 52 83 85 87 272 l4 162 36 12 c75 24 227 101 310 156 47 31 134 103
193 160 58 57 109 103 113 103 10 0 266 -220 266 -229 0 -4 -9 -26 -20 -49
-109 -226 -29 -515 182 -659 94 -63 155 -84 272 -90 151 -9 278 34 384 132
118 107 174 234 174 395 0 249 -150 444 -396 515 -44 13 -83 16 -155 13 -116
-6 -189 -30 -282 -93 -36 -25 -69 -45 -73 -45 -12 0 -266 221 -266 231 0 5 20
44 45 87 87 150 156 363 171 528 4 41 8 74 9 74 2 0 189 27 416 60 228 33 421
60 430 60 12 0 18 -13 23 -42 12 -73 74 -185 140 -252 162 -164 411 -204 622
-101 114 56 225 188 264 313 29 94 28 245 -4 333 -147 416 -696 487 -947 123
-33 -49 -78 -163 -79 -201 0 -12 -4 -24 -9 -27 -5 -4 -148 -26 -318 -51 -169
-25 -355 -52 -412 -61 -57 -8 -110 -13 -117 -10 -9 3 -14 21 -14 49 0 98 -60
340 -114 458 -5 13 47 64 229 223 l235 206 64 -44 c268 -183 640 -86 779 204
103 215 62 447 -109 615 -205 203 -539 199 -745 -8 -107 -107 -170 -279 -154
-422 8 -65 38 -167 61 -202 8 -12 14 -27 14 -32 0 -12 -425 -385 -443 -389 -6
-1 -22 15 -34 36 -32 56 -142 189 -212 255 -33 32 -61 60 -61 63 0 3 56 84
124 182 156 224 159 230 154 303 -7 101 -75 163 -179 163 -43 1 -64 -5 -93
-24 -27 -18 -117 -139 -314 -424 -237 -342 -283 -403 -317 -420 -36 -19 -61
-21 -255 -24 -236 -3 -272 3 -323 56 -15 16 -145 199 -290 407 -169 246 -274
387 -295 402 -50 33 -111 39 -163 16 -88 -39 -135 -129 -111 -214 5 -19 66
-117 136 -217 70 -101 129 -188 132 -195 2 -7 -43 -62 -101 -122 l-106 -108
-32 39 c-18 21 -134 160 -259 308 l-227 269 44 50 c185 211 177 521 -17 723
-128 134 -328 193 -505 150z m297 -118 c173 -79 267 -236 258 -428 -4 -77 -9
-98 -41 -163 -64 -130 -184 -218 -329 -240 -228 -35 -450 128 -490 361 -36
210 86 409 297 485 75 26 230 19 305 -15z m4015 -463 c124 -33 233 -125 288
-245 42 -91 49 -217 17 -309 -39 -118 -122 -210 -238 -264 -63 -30 -74 -32
-178 -32 -107 0 -112 1 -186 38 -120 59 -200 156 -233 284 -83 317 212 610
530 528z m-3060 -355 c55 -80 181 -260 278 -401 241 -349 232 -344 577 -344
210 1 229 2 282 23 31 13 74 40 97 60 22 20 147 192 277 382 290 422 296 430
335 430 35 0 69 -31 69 -62 -1 -13 -143 -229 -333 -504 -362 -522 -382 -558
-412 -729 -8 -48 -15 -128 -15 -176 0 -76 3 -92 20 -109 23 -23 49 -25 75 -6
17 12 20 32 26 158 7 148 25 224 77 323 33 62 297 438 312 443 19 7 161 -147
225 -242 89 -134 156 -291 190 -446 24 -113 30 -324 12 -445 -65 -421 -349
-791 -737 -961 l-75 -33 -5 500 c-5 481 -6 501 -24 515 -29 21 -63 17 -80 -8
-14 -20 -16 -107 -16 -740 0 -705 0 -718 -20 -738 -17 -17 -33 -20 -125 -20
l-105 0 0 559 c0 495 -2 561 -16 575 -21 22 -50 20 -74 -4 -20 -20 -20 -33
-20 -575 l0 -555 -103 0 c-93 0 -106 2 -123 21 -18 20 -19 55 -24 998 -6 1086
-1 1012 -76 1170 -19 41 -179 283 -356 539 -204 296 -320 473 -320 489 0 38
30 64 70 61 33 -3 42 -13 137 -148z m199 -727 c248 -358 229 -266 233 -1167 2
-401 0 -733 -5 -738 -13 -13 -241 106 -333 176 -150 114 -284 275 -368 444
-76 151 -131 383 -131 549 0 243 77 496 213 700 69 104 223 271 237 257 4 -5
74 -104 154 -221z m-1809 -18 c113 -32 222 -130 276 -250 20 -42 23 -67 24
-165 0 -111 -1 -117 -34 -185 -136 -278 -494 -337 -705 -115 -190 199 -157
504 71 661 106 73 232 91 368 54z m5382 -186 c193 -66 318 -274 285 -474 -15
-92 -52 -166 -118 -235 -68 -71 -146 -113 -244 -131 -183 -32 -381 74 -463
248 -26 57 -32 83 -35 158 -5 111 13 181 69 265 112 167 315 235 506 169z
m-4751 -1510 c176 -66 284 -222 284 -412 0 -214 -152 -390 -369 -428 -129 -23
-278 29 -376 132 -165 173 -165 426 1 600 120 125 300 167 460 108z m3704 20
c235 -38 402 -266 363 -495 -24 -139 -117 -266 -238 -324 -291 -142 -625 67
-625 390 0 129 67 270 163 343 68 51 169 89 257 96 8 0 44 -4 80 -10z"/>
<path d="M3493 5322 c-100 -36 -180 -109 -225 -208 -19 -41 -23 -66 -23 -154
0 -100 2 -108 34 -168 73 -135 190 -205 341 -206 75 0 93 4 152 31 294 138
300 542 10 685 -57 28 -79 33 -152 36 -63 2 -99 -3 -137 -16z m203 -107 c187
-55 247 -299 107 -438 -49 -50 -97 -70 -174 -75 -209 -13 -344 206 -241 391
61 110 185 159 308 122z"/>
</g>
</svg>
