<svg width="24" height="24" viewBox="0 0 24 24" fill="none" xmlns="http://www.w3.org/2000/svg">
<path fill-rule="evenodd" clip-rule="evenodd" d="M2.25 12C2.25 6.62411 6.62411 2.25 12 2.25C17.3759 2.25 21.75 6.62411 21.75 12C21.75 17.3759 17.3759 21.75 12 21.75C6.62411 21.75 2.25 17.3759 2.25 12ZM20.25 12C20.25 7.43477 16.5652 3.75 12 3.75C7.43477 3.75 3.75 7.43477 3.75 12C3.75 16.5652 7.43477 20.25 12 20.25C16.5652 20.25 20.25 16.5652 20.25 12ZM8.26947 9.53493C8.2551 9.49961 8.24856 9.46191 8.25026 9.42413C8.36851 7.44017 10.0961 6.75 11.6731 6.75C13.4118 6.75 15 7.60394 15 9.37149C15 10.6337 14.2096 11.235 13.4517 11.7766C12.5343 12.4305 12.1946 12.675 12.1946 13.5149V13.6377C12.1946 13.7153 12.1618 13.7896 12.1034 13.8445C12.0451 13.8993 11.9659 13.9301 11.8834 13.9301H10.874C10.7923 13.9302 10.7139 13.9 10.6557 13.8462C10.5975 13.7923 10.5641 13.7191 10.5628 13.6424L10.5591 13.3885C10.5118 12.3041 11.1752 11.6362 12.0128 11.0642C12.7484 10.5448 13.2139 10.2032 13.2139 9.46039C13.2139 8.49532 12.4323 8.09408 11.5785 8.09408C10.5802 8.09408 10.0202 8.65324 9.90814 9.42062C9.88573 9.58088 9.74882 9.71307 9.57706 9.71307H8.55022C8.51 9.71374 8.47006 9.70667 8.43284 9.6923C8.39563 9.67792 8.36195 9.65655 8.33385 9.62949C8.30575 9.60242 8.28385 9.57024 8.26947 9.53493ZM11.4453 17.25C10.7172 17.25 10.1882 16.7891 10.1882 16.1656C10.1882 15.5199 10.7172 15.066 11.444 15.066C12.202 15.066 12.7248 15.5199 12.7248 16.1656C12.7248 16.7891 12.2033 17.25 11.4453 17.25Z" fill="white"/>
</svg>
