<?xml version="1.0" standalone="no"?>
<!DOCTYPE svg PUBLIC "-//W3C//DTD SVG 20010904//EN"
 "http://www.w3.org/TR/2001/REC-SVG-20010904/DTD/svg10.dtd">
<svg version="1.0" xmlns="http://www.w3.org/2000/svg"
 width="800.000000pt" height="800.000000pt" viewBox="0 0 800.000000 800.000000"
 preserveAspectRatio="xMidYMid meet">

<g transform="translate(0.000000,800.000000) scale(0.100000,-0.100000)"
fill="#202266" stroke="none">
<path d="M2725 6680 c-206 -41 -372 -193 -431 -395 -38 -131 -16 -309 55 -430
64 -109 175 -202 298 -247 85 -32 283 -32 363 0 30 12 58 22 62 22 7 0 201
-311 196 -314 -2 -1 -39 -28 -83 -61 -289 -212 -507 -532 -595 -874 l-11 -43
-87 7 c-147 11 -354 34 -359 38 -2 3 -11 35 -18 71 -22 105 -70 191 -150 271
-221 221 -561 221 -780 1 -112 -113 -165 -237 -165 -391 0 -148 55 -280 164
-390 210 -212 537 -219 769 -15 53 47 122 156 148 234 l23 69 85 -7 c47 -3
144 -11 214 -18 l129 -12 -7 -115 c-19 -325 73 -656 260 -935 36 -54 65 -101
65 -104 -1 -9 -279 -216 -295 -220 -7 -2 -20 9 -29 23 -22 33 -128 112 -186
137 -113 50 -256 62 -374 32 -267 -69 -450 -347 -406 -616 63 -378 453 -582
796 -416 87 42 197 148 241 233 63 120 80 277 47 411 -9 36 -15 66 -13 68 2 2
75 56 161 121 l158 117 59 -54 c238 -221 505 -355 808 -408 154 -27 360 -27
515 -1 117 21 295 74 366 110 23 12 47 21 54 20 7 0 48 -42 90 -92 l76 -91
-49 -53 c-82 -91 -139 -240 -139 -368 0 -205 126 -404 312 -494 224 -107 461
-69 633 104 174 175 215 434 103 649 -42 79 -155 192 -233 233 -132 69 -304
82 -443 33 -54 -19 -66 -20 -76 -9 -67 75 -136 158 -136 162 0 3 36 30 79 61
283 198 522 538 606 861 10 39 22 74 26 79 6 7 241 -11 387 -30 40 -5 42 -7
42 -38 0 -137 116 -330 250 -416 131 -84 316 -109 465 -63 168 52 313 196 366
362 29 92 29 241 0 331 -58 181 -188 310 -368 366 -74 24 -95 26 -186 22 -126
-7 -212 -37 -309 -108 -81 -59 -158 -164 -188 -256 -19 -56 -24 -63 -43 -59
-12 2 -103 12 -202 21 -99 9 -181 18 -183 19 -2 2 -5 86 -6 187 -3 196 -19
302 -71 464 -52 159 -172 377 -280 510 l-25 31 116 89 c97 74 118 86 132 76
184 -126 389 -145 581 -51 236 116 357 377 291 633 -27 106 -63 168 -145 252
-106 108 -240 164 -390 164 -154 0 -278 -53 -391 -165 -119 -118 -173 -261
-161 -428 7 -90 31 -171 73 -242 15 -27 23 -50 18 -53 -6 -4 -56 -42 -112 -84
-55 -43 -106 -78 -113 -78 -6 0 -35 22 -64 48 -135 124 -369 253 -560 310
-352 104 -758 78 -1084 -69 -36 -16 -68 -26 -71 -22 -4 5 -48 77 -99 161 l-93
152 40 48 c99 119 142 231 142 369 0 164 -49 283 -165 398 -38 39 -93 83 -122
98 -104 55 -257 79 -368 57z m208 -105 c212 -55 347 -228 347 -444 0 -164 -84
-308 -230 -394 -99 -57 -239 -72 -353 -37 -168 52 -290 193 -317 366 -49 313
250 588 553 509z m3110 -537 c366 -174 347 -692 -31 -839 -81 -32 -233 -32
-314 0 -85 33 -168 99 -216 171 -171 255 -62 582 227 687 56 20 81 23 161 21
86 -3 103 -7 173 -40z m-1823 -638 c327 -29 613 -158 849 -385 114 -110 203
-226 269 -354 241 -463 213 -1011 -76 -1449 -69 -106 -211 -255 -321 -338
-165 -124 -400 -225 -604 -259 -113 -19 -350 -21 -453 -5 -307 49 -564 180
-784 400 -210 210 -331 445 -391 755 -21 106 -18 378 4 494 121 623 621 1080
1250 1140 119 12 130 12 257 1z m-2535 -624 c176 -47 310 -194 337 -374 36
-228 -111 -448 -337 -507 -244 -63 -496 92 -555 343 -7 31 -11 87 -8 133 9
149 110 302 243 368 100 50 221 64 320 37z m5109 -710 c231 -114 324 -373 217
-602 -83 -178 -288 -287 -478 -256 -170 28 -306 144 -364 308 -17 48 -20 77
-17 159 3 87 8 109 35 168 36 76 116 166 181 204 80 47 148 63 253 60 88 -2
102 -6 173 -41z m-4548 -1150 c124 -33 239 -131 297 -253 27 -58 32 -82 35
-163 3 -78 0 -106 -18 -159 -42 -125 -120 -216 -235 -271 -271 -132 -591 35
-645 338 -38 211 94 428 305 501 71 24 185 27 261 7z m3185 -482 c195 -57 328
-236 329 -439 0 -275 -255 -492 -526 -447 -244 40 -418 279 -377 519 31 176
174 333 341 372 61 15 175 12 233 -5z"/>
<path d="M3783 4856 l-28 -24 -1 -233 c-1 -213 -2 -233 -19 -246 -15 -10 -70
-13 -241 -13 -290 0 -271 14 -280 -200 -4 -85 -3 -218 1 -294 10 -198 -8 -186
278 -186 172 0 227 -3 242 -14 17 -12 18 -31 19 -237 1 -240 5 -262 52 -279
14 -6 149 -10 299 -10 l274 0 28 24 28 24 3 234 c3 202 5 235 19 246 12 9 76
12 234 12 145 0 227 4 244 12 42 19 47 59 43 351 l-3 269 -28 24 c-28 24 -30
24 -248 24 -133 0 -228 4 -240 10 -18 10 -19 23 -19 229 0 234 -6 271 -46 290
-17 7 -117 11 -304 11 l-279 0 -28 -24z m501 -135 c14 -12 16 -43 16 -237 0
-227 5 -265 39 -280 9 -4 117 -9 240 -10 150 -2 228 -7 237 -15 19 -15 20
-339 2 -357 -9 -9 -73 -12 -222 -13 -229 0 -272 -7 -293 -49 -9 -18 -13 -88
-13 -246 0 -188 -2 -224 -16 -234 -11 -10 -61 -14 -177 -14 -142 -1 -164 1
-179 17 -16 15 -18 41 -18 235 0 154 -4 224 -13 242 -21 42 -64 49 -293 49
-149 1 -213 4 -222 13 -19 19 -17 342 2 357 10 8 84 13 238 14 239 2 261 7
278 53 6 14 10 122 10 240 0 195 2 216 18 232 17 17 36 19 184 18 123 -1 170
-5 182 -15z"/>
</g>
</svg>
