<?xml version="1.0" standalone="no"?>
<!DOCTYPE svg PUBLIC "-//W3C//DTD SVG 20010904//EN"
 "http://www.w3.org/TR/2001/REC-SVG-20010904/DTD/svg10.dtd">
<svg version="1.0" xmlns="http://www.w3.org/2000/svg"
 width="500.000000pt" height="500.000000pt" viewBox="0 0 500.000000 500.000000"
 preserveAspectRatio="xMidYMid meet">

<g transform="translate(0.000000,500.000000) scale(0.100000,-0.100000)"
fill="#202266" stroke="none">
<path d="M2335 4144 c-179 -19 -380 -76 -543 -154 -478 -228 -809 -656 -914
-1182 -32 -163 -32 -453 0 -616 55 -273 174 -529 346 -739 44 -55 55 -63 81
-61 48 5 45 38 -8 101 -160 187 -282 442 -338 707 -33 152 -33 448 0 600 69
326 203 573 436 805 232 233 479 367 805 436 88 19 136 23 300 23 164 0 212
-4 300 -23 326 -69 573 -203 805 -436 234 -233 370 -486 435 -803 116 -572
-115 -1185 -582 -1543 -541 -416 -1274 -438 -1842 -54 -104 70 -138 79 -144
37 -5 -32 15 -52 125 -123 183 -118 379 -198 595 -241 163 -32 453 -32 616 0
674 135 1179 640 1314 1314 32 163 32 453 0 616 -135 672 -643 1181 -1309
1312 -105 21 -378 34 -478 24z"/>
<path d="M2455 3481 c-37 -16 -62 -55 -190 -296 -70 -132 -132 -246 -139 -253
-6 -6 -139 -35 -295 -62 -155 -28 -291 -55 -301 -60 -36 -19 -60 -61 -60 -106
0 -52 -2 -49 243 -303 138 -143 177 -190 177 -210 0 -14 -16 -136 -35 -271
-39 -274 -42 -326 -19 -358 19 -28 65 -52 99 -52 15 0 148 59 296 131 l269
130 269 -130 c148 -72 281 -131 296 -131 34 0 80 24 99 52 23 32 20 84 -19
358 -19 135 -35 257 -35 271 0 20 39 67 178 210 244 254 242 251 242 303 0 45
-24 87 -60 106 -19 10 -511 100 -547 100 -43 0 -56 -62 -15 -74 9 -3 131 -26
270 -50 138 -25 257 -48 262 -51 30 -18 0 -58 -200 -266 l-210 -219 0 -47 c0
-27 16 -158 35 -293 40 -279 41 -293 20 -310 -13 -11 -60 9 -288 119 -149 72
-283 131 -297 131 -14 0 -148 -59 -297 -131 -228 -110 -275 -130 -288 -119
-21 17 -20 31 20 310 19 135 35 266 35 293 l0 47 -210 219 c-200 208 -230 248
-200 266 5 3 124 26 262 51 344 60 344 60 372 98 13 17 81 140 151 273 70 133
134 244 141 247 8 3 20 3 27 0 7 -2 64 -100 126 -217 62 -117 121 -220 131
-231 20 -21 54 -15 64 11 7 17 3 26 -140 293 -51 97 -104 186 -118 199 -26 25
-89 36 -121 22z"/>
</g>
</svg>
