<?xml version="1.0" standalone="no"?>
<!DOCTYPE svg PUBLIC "-//W3C//DTD SVG 20010904//EN"
 "http://www.w3.org/TR/2001/REC-SVG-20010904/DTD/svg10.dtd">
<svg version="1.0" xmlns="http://www.w3.org/2000/svg"
 width="501.000000pt" height="500.000000pt" viewBox="0 0 501.000000 500.000000"
 preserveAspectRatio="xMidYMid meet">

<g transform="translate(0.000000,500.000000) scale(0.100000,-0.100000)"
fill="#202266" stroke="none">
<path d="M2280 4135 c-198 -28 -335 -71 -515 -160 -169 -84 -294 -174 -430
-310 -271 -271 -430 -604 -475 -990 -42 -371 55 -771 264 -1085 92 -138 152
-202 185 -198 45 5 39 40 -22 115 -168 209 -276 442 -329 708 -31 156 -31 414
0 570 61 307 201 579 410 797 477 496 1202 627 1818 328 450 -218 761 -629
861 -1135 25 -126 25 -424 0 -550 -144 -732 -739 -1255 -1471 -1292 -345 -17
-670 77 -968 279 -99 68 -133 73 -133 23 0 -82 413 -294 680 -349 366 -75 755
-26 1079 136 474 238 795 665 894 1193 23 125 23 445 0 570 -129 683 -639
1202 -1313 1335 -142 28 -399 35 -535 15z"/>
<path d="M2335 3213 c-184 -26 -428 -129 -626 -264 -181 -124 -479 -403 -479
-449 0 -25 176 -208 299 -312 232 -193 438 -306 686 -375 123 -34 358 -43 487
-19 243 46 502 175 743 371 134 109 325 306 325 336 0 30 -256 286 -379 377
-91 69 -124 76 -129 31 -3 -22 6 -33 45 -61 133 -96 373 -319 373 -348 0 -18
-132 -152 -240 -242 -185 -156 -395 -281 -584 -347 -397 -140 -810 -39 -1240
303 -111 88 -296 267 -296 286 0 19 185 199 295 286 304 241 602 364 882 364
173 0 326 -37 504 -121 117 -56 154 -60 154 -19 0 22 -14 32 -103 76 -193 97
-352 135 -555 133 -73 -1 -145 -4 -162 -6z"/>
<path d="M2420 2959 c-139 -23 -279 -132 -343 -266 -31 -65 -32 -73 -32 -193
0 -116 2 -129 29 -187 32 -70 56 -96 83 -91 29 5 27 36 -9 112 -30 65 -33 79
-33 166 0 85 3 102 31 160 39 82 75 124 139 165 80 51 144 68 239 63 143 -8
265 -88 328 -216 31 -62 33 -73 33 -172 0 -99 -2 -110 -33 -172 -38 -78 -106
-144 -190 -185 -51 -25 -67 -28 -162 -28 -95 0 -111 3 -163 28 -68 34 -91 32
-95 -6 -3 -25 2 -30 60 -57 145 -67 317 -58 449 25 154 98 240 288 210 467
-29 178 -157 325 -321 371 -75 22 -154 27 -220 16z"/>
</g>
</svg>
