<svg width="24" height="24" viewBox="0 0 24 24" fill="none" xmlns="http://www.w3.org/2000/svg">
<path d="M7.32 19.67C8.72705 20.5374 10.347 20.9978 12 21C12.32 21 12.65 21 13 20.95C15.2969 20.7073 17.4125 19.5908 18.9091 17.8316C20.4057 16.0725 21.1687 13.8053 21.0402 11.4992C20.9118 9.19314 19.9016 7.02472 18.2189 5.44268C16.5362 3.86064 14.3096 2.98608 12 2.99999C11.7169 2.98527 11.4331 2.98527 11.15 2.99999C9.68839 3.14049 8.28335 3.63648 7.05744 4.44469C5.83152 5.2529 4.82198 6.34878 4.11685 7.63674C3.41172 8.92471 3.03243 10.3656 3.01207 11.8338C2.9917 13.3021 3.33087 14.753 4 16.06L3 20.59L7.32 19.67ZM5.1 11C5.31657 9.44499 6.04961 8.00794 7.18132 6.91976C8.31303 5.83157 9.77771 5.15544 11.34 4.99999H12C12.9803 4.99521 13.9507 5.1964 14.8483 5.59052C15.7459 5.98463 16.5507 6.56289 17.2106 7.28785C17.8705 8.0128 18.3708 8.86828 18.6791 9.79887C18.9873 10.7295 19.0966 11.7144 19 12.69C18.8362 14.291 18.1318 15.7883 17.0029 16.9354C15.8741 18.0824 14.3881 18.8106 12.79 19C12.5269 19.0157 12.2631 19.0157 12 19C10.7112 19.0099 9.44468 18.6639 8.34 18L7.66 17.59L6.88 17.75L5.62 18L6 16.49L6.15 15.79L5.83 15.16C5.16416 13.8816 4.90922 12.4287 5.1 11Z" fill="white"/>
<path d="M10.42 13.56C11.3714 14.6274 12.5551 15.4622 13.88 16C14.0049 16.0301 14.1351 16.0301 14.26 16C14.6323 15.9257 14.9798 15.7583 15.2701 15.5135C15.5603 15.2687 15.7839 14.9545 15.92 14.6L15.99 14.26C16.0057 14.2023 16.0026 14.141 15.981 14.0853C15.9594 14.0295 15.9205 13.9821 15.87 13.95L14.59 13.1C14.4835 13.028 14.3552 12.9957 14.2273 13.0084C14.0995 13.0212 13.9801 13.0784 13.89 13.17L13.19 13.87C12.6028 13.4493 12.054 12.9775 11.55 12.46C11.0325 11.956 10.5607 11.4072 10.14 10.82L10.84 10.12C10.9316 10.0299 10.9888 9.91051 11.0016 9.78264C11.0143 9.65477 10.9819 9.52646 10.91 9.41999L10.06 8.13999C10.0309 8.08586 9.98472 8.04282 9.92869 8.01752C9.87267 7.99222 9.80987 7.98606 9.75 7.99999L9.41 8.06999C9.05242 8.20558 8.73531 8.43008 8.4886 8.72228C8.24189 9.01448 8.07373 9.36474 8 9.73999C7.96987 9.86486 7.96987 9.99511 8 10.12C8.53464 11.4357 9.36229 12.6122 10.42 13.56Z" fill="white"/>
</svg>
